<?xml version="1.0" encoding="UTF-8"?><svg width="48" height="41" viewBox="0 0 48 41" xmlns="http://www.w3.org/2000/svg"><g fill="none" fill-rule="evenodd"><path d="M-71-251h748V959H-71z"/><g transform="translate(-2 -6)"><circle fill="none" cx="26" cy="26" r="26"/><g transform="translate(2 6)" fill="#FFF" fill-rule="nonzero"><path d="M36 13.06a1 1 0 00-1-1H5a1 1 0 00-1 1v4a1 1 0 001 1h30a1 1 0 001-1v-4zm-2 3H6v-2h28v2zM5 8.06h22a1 1 0 100-2H5a1 1 0 100 2z"/><circle cx="34" cy="6.06" r="2"/><path d="M28 25.06a1 1 0 10-2 0c0 1.8.65 2.78 1.17 3.56.46.7.83 1.25.83 2.44a1 1 0 102 0c0-1.8-.65-2.77-1.17-3.55a3.78 3.78 0 01-.83-2.45zM11 24.06a1 1 0 00-1 1c0 1.2-.37 1.75-.83 2.45A5.75 5.75 0 008 31.06a1 1 0 102 0c0-1.2.37-1.75.83-2.44A5.75 5.75 0 0012 25.06a1 1 0 00-1-1zM19 24.06a1 1 0 00-1 1v6a1 1 0 102 0v-6a1 1 0 00-1-1zM42 24.06h-1v-1a1 1 0 10-2 0v1h-1a1 1 0 100 2h1v1a1 1 0 102 0v-1h1a1 1 0 100-2zM42 32.06h-4a1 1 0 100 2h4a1 1 0 100-2z"/><path d="M44 18.06h-4v-14a4 4 0 00-4-4H4a4 4 0 00-4 4v14a4 4 0 004 4h28v10a8 8 0 0016 0v-10a4 4 0 00-4-4zm-11.44 2H4a2 2 0 01-2-2v-14c0-1.1.9-2 2-2h32a2 2 0 012 2v14h-2c-1.47 0-2.75.81-3.44 2zm13.44 12a6 6 0 01-12 0v-10c0-1.1.9-2 2-2h8a2 2 0 012 2v10z"/></g></g></g></svg>
