<?xml version="1.0" encoding="UTF-8"?><svg width="48" height="25" viewBox="0 0 48 25" xmlns="http://www.w3.org/2000/svg"><g fill="none" fill-rule="evenodd"><circle cx="26" cy="26" r="26" fill="none" fill-opacity="0" transform="translate(-2 -14)"/><g fill="#333" fill-rule="nonzero"><path d="M42.74 0H10.2a5.27 5.27 0 00-5.27 5.26v.87H3.16A3.16 3.16 0 000 9.29v5.53a3.16 3.16 0 003.16 3.16h1.78v.86c0 2.9 2.36 5.26 5.27 5.27h32.53c2.9 0 5.26-2.36 5.26-5.27V5.26C48 2.36 45.64 0 42.74 0zM3.16 15.87c-.58 0-1.05-.47-1.05-1.05V9.29c0-.58.47-1.05 1.05-1.06h1.78v7.64H3.16zm42.73 2.97A3.16 3.16 0 0142.74 22H10.2a3.16 3.16 0 01-3.16-3.16V5.26a3.16 3.16 0 013.16-3.15h32.53a3.16 3.16 0 013.15 3.15v13.58z"/><path d="M19.6 11h-1.83V9.16a1.05 1.05 0 10-2.11 0V11h-1.84a1.05 1.05 0 100 2.1h1.84v1.85a1.05 1.05 0 102.1 0V13.1h1.85a1.05 1.05 0 100-2.11zM38.56 8.1c-.58 0-1.05.48-1.05 1.06v5.79a1.05 1.05 0 102.1 0v-5.8c0-.57-.47-1.05-1.05-1.05z"/></g></g></svg>
