<?xml version="1.0" encoding="UTF-8"?><svg width="48" height="36" viewBox="0 0 48 36" xmlns="http://www.w3.org/2000/svg"><g fill="none" fill-rule="evenodd"><path d="M-171-253h748V957h-748z"/><g transform="translate(-2 -8)"><circle fill="none" cx="26" cy="26" r="26"/><g transform="translate(2 8)" fill="#FFF" fill-rule="nonzero"><path d="M24 26a6 6 0 10-.01-12.01A6 6 0 0024 26zm0-10a4 4 0 110 8 4 4 0 010-8z"/><path d="M23 21a1 1 0 001-1 1 1 0 100-2 2 2 0 00-2 2 1 1 0 001 1z"/><path d="M47 0H1a1 1 0 00-1 1v7a4 4 0 004 4v4c0 11.03 8.97 20 20 20s20-8.97 20-20v-4a4 4 0 004-4V1a1 1 0 00-1-1zm-5 16c0 9.92-8.08 18-18 18S6 25.92 6 16v-4h12.06A9.96 9.96 0 0024 30a9.96 9.96 0 005.94-18H42v4zm-18-4a8 8 0 010 16 8 8 0 010-16zm22-4a2 2 0 01-2 2H4a2 2 0 01-2-2V2h44v6z"/><circle cx="37" cy="15" r="1"/></g></g></g></svg>
