<?xml version="1.0" encoding="iso-8859-1"?><svg xmlns="http://www.w3.org/2000/svg" viewBox="0 0 512 512"><path d="M449.72 239.84a13.68 13.68 0 00-27.3 1.97c.34 4.65.51 9.43.51 14.19 0 109.06-88.72 197.79-197.78 197.79S27.36 365.06 27.36 256 116.09 58.21 225.15 58.21c43.19 0 84.2 13.67 118.62 39.53a13.68 13.68 0 0016.43-21.87 223.11 223.11 0 00-135.05-45.02C101 30.86 0 131.86 0 256s101 225.15 225.15 225.15 225.14-101 225.14-225.15c0-5.41-.2-10.85-.57-16.16z"/><path d="M496.4 61.77a53.43 53.43 0 00-75.48 0l-197.1 197.1L153.93 189a53.43 53.43 0 00-75.48 0 53.43 53.43 0 000 75.48L198.8 384.82a35.25 35.25 0 0025.01 10.34c9.06 0 18.11-3.45 25-10.34L496.4 137.24a53.43 53.43 0 000-75.47zm-19.35 56.13L229.47 365.48a8.02 8.02 0 01-11.32 0L97.81 245.13a26.04 26.04 0 010-36.78c5.07-5.07 11.73-7.6 18.4-7.6s13.31 2.53 18.38 7.6l71.88 71.88a24.37 24.37 0 0017.34 7.19c6.55 0 12.71-2.56 17.34-7.19L440.27 81.12a26.04 26.04 0 0136.78 0 26.04 26.04 0 010 36.78z"/></svg>
