<?xml version="1.0" encoding="UTF-8"?><svg width="39" height="48" viewBox="0 0 39 48" xmlns="http://www.w3.org/2000/svg"><g transform="translate(-7 -2)" fill="none" fill-rule="evenodd"><circle fill="none" cx="26" cy="26" r="26"/><g fill="#333" fill-rule="nonzero"><path d="M36.6 7.6H35a.8.8 0 100 1.6h1.6a.8.8 0 100-1.6zM13.4 19.6H11v11.2h9.6V19.6H13.4zm3.2 1.6v2.4H15v-2.4h1.6zm2.4 0v8h-6.4v-8h.8v4h4.8v-4h.8zM23 18a.8.8 0 00-.8.8v12.8a.8.8 0 101.6 0V18.8a.8.8 0 00-.8-.8zM29.4 18a.8.8 0 00-.8.8v12.8a.8.8 0 101.6 0V18.8a.8.8 0 00-.8-.8zM19 38c0 .44.36.8.8.8h12.8a.8.8 0 100-1.6H19.8a.8.8 0 00-.8.8z"/><path d="M43.66 2H8.74C7.78 2 7 2.78 7 3.74v43.92C7 48.95 8.05 50 9.34 50h33.72c1.29 0 2.34-1.05 2.34-2.34V3.74c0-.96-.78-1.74-1.74-1.74zM8.6 3.74c0-.08.06-.14.14-.14H25.4V34H8.6V3.74zm35.2 43.92c0 .4-.33.74-.74.74H9.34a.74.74 0 01-.74-.74V35.6h35.2v12.06zM27 34V3.6h16.66c.08 0 .14.06.14.14V34H27z"/></g></g></svg>
