<?xml version="1.0" encoding="UTF-8"?><svg width="41" height="48" viewBox="0 0 41 48" xmlns="http://www.w3.org/2000/svg"><g fill="none" fill-rule="evenodd"><circle cx="26" cy="26" r="26" fill="none" fill-opacity="0" transform="translate(-6 -2)"/><path d="M10.9 5.04c.8-.99 1.1-2.52.76-3.73a1.02 1.02 0 011.96-.57 6.45 6.45 0 01-1.12 5.58c-1.1 1.36-1.38 3.77-.12 4.94a1.02 1.02 0 01-1.4 1.5c-2.14-2-1.77-5.6-.08-7.72zm6.73 1.19h6.74a1.02 1.02 0 000-2.05h-6.74a1.02 1.02 0 000 2.05zm22.84 9.8v8.2c0 4.1-3.07 7.48-7.03 7.99v9.14h1.02c.56 0 1.02.46 1.02 1.03v4.55c0 .56-.46 1.02-1.02 1.02H1.09c-.56 0-1.02-.46-1.02-1.02v-4.55c0-.57.46-1.03 1.02-1.03h.85c-.4-8.83.47-18.75 3.96-22.05L.26 11.6c-.12-.18-.2-.39-.2-.6V9A1.02 1.02 0 011.1 7.98h4.24a6.5 6.5 0 011.3-2.94c.79-.99 1.1-2.52.75-3.73A1.02 1.02 0 019.35.74a6.45 6.45 0 01-1.13 5.58 4.58 4.58 0 00-.94 2.82c0 .81.26 1.6.82 2.12a1.02 1.02 0 01-1.4 1.5 4.68 4.68 0 01-1.4-2.74H2.13v.63l6.02 8.26a1.07 1.07 0 01.19.4 1.02 1.02 0 01-.53 1.13c-1.25.68-2.37 3.13-3.07 6.72C4 31 3.73 35.9 4 41.36h27.4v-10.1c0-.57.46-1.03 1.02-1.03 3.32 0 6-2.69 6-6v-8.2c0-3.31-2.68-6-6-6H25.4v22.16a3.24 3.24 0 01-6.48 0V13.06a1.02 1.02 0 012.05 0v19.13a1.2 1.2 0 002.38 0V10.02H14.5V7.98h17.91a8.06 8.06 0 018.06 8.05zm-7.03 27.38H2.12v2.5h31.32v-2.5zM32.4 26.33c.57 0 1.03-.45 1.03-1.02V14.95a1.02 1.02 0 00-2.05 0V25.3c0 .57.46 1.02 1.02 1.02z" fill="#333" fill-rule="nonzero"/></g></svg>
