<?xml version="1.0" encoding="UTF-8"?><svg width="48" height="45" viewBox="0 0 48 45" xmlns="http://www.w3.org/2000/svg"><g transform="translate(-2 -4)" fill="none" fill-rule="evenodd"><circle fill="none" cx="26" cy="26" r="26"/><g transform="translate(2 4)" fill="#333" fill-rule="nonzero"><path d="M47.66 20.35l-23-20.1a1 1 0 00-1.32 0l-23 20.1c-.31.28-.42.72-.28 1.11a1 1 0 00.94.66h5v21.11a1 1 0 001 1h34a1 1 0 001-1V22.12h5a1 1 0 00.94-.66c.14-.39.03-.83-.28-1.1zM41 20.11a1 1 0 00-1 1v21.11H8v-21.1a1 1 0 00-1-1.01H3.67L24 2.34 44.33 20.1H41z"/><circle cx="28.24" cy="22.59" r="1.88"/><path d="M20.33 23.25c0 .78.13 1.55.38 2.3l-6.29 6.28c-.2.2-.3.46-.3.73v3.11c0 .57.46 1.04 1.03 1.04h3.1c.28 0 .55-.11.74-.3l6.3-6.3a7.26 7.26 0 10-4.95-6.87zm7.25-5.18a5.18 5.18 0 11-2.12 9.89c-.4-.18-.86-.1-1.16.2l-6.47 6.48h-1.64v-1.65l6.46-6.46c.31-.3.4-.77.22-1.16a5.13 5.13 0 014.7-7.3z"/></g></g></svg>
