<?xml version="1.0" encoding="UTF-8"?><svg width="40" height="48" viewBox="0 0 40 48" xmlns="http://www.w3.org/2000/svg"><g transform="translate(-6 -2)" fill="none" fill-rule="evenodd"><circle fill="none" cx="26" cy="26" r="26"/><g fill="#333" fill-rule="nonzero"><path d="M18.3 30.42c.65-.98.97-2.04.95-3.1V6.46a11.68 11.68 0 003.27 2.65c2.13 1.04 2.25 2.64 2.19 4.32l-.01.25a1.1 1.1 0 002.2.07l.01-.23c.06-1.4.18-4.65-3.42-6.4-1.8-.86-3.8-3.51-4.42-4.46l-.05-.07-.02-.03-.03-.03a1.1 1.1 0 00-.27-.22l-.03-.02-.02-.01a1.1 1.1 0 00-.34-.1l-.05-.02H18l-.06.02h-.05l-.06.02-.05.02-.05.02-.06.03-.04.01-.06.04-.03.02-.06.04-.03.03c-.02 0-.03.02-.04.03a1.1 1.1 0 00-.22.27l-.02.03v.02c-.06.1-.1.21-.11.33l-.01.05V23.4a6.53 6.53 0 00-3.67-1.05c-.8 0-1.6.13-2.38.38-3.5 1.12-5.59 4.4-4.65 7.31.7 2.22 2.92 3.65 5.64 3.65a7.84 7.84 0 006.31-3.26zm-1.84-1.22a5.64 5.64 0 01-4.48 2.27c-1.73 0-3.12-.83-3.53-2.1-.56-1.76.88-3.8 3.22-4.55a5.64 5.64 0 011.71-.27c1.74 0 3.13.83 3.54 2.1.26.81.1 1.72-.46 2.55zM45.74 36.5V12.77v-.09-.03l-.02-.06v-.05l-.01-.04-.02-.07-.01-.02-.03-.08-.01-.03a1.05 1.05 0 00-.04-.07l-.02-.04-.04-.05a.99.99 0 00-.03-.05l-.03-.03a1.02 1.02 0 00-.04-.05l-.03-.03a1.16 1.16 0 00-.05-.04l-.03-.03a1.07 1.07 0 00-.05-.04l-.04-.03-.04-.02-.05-.03-.04-.02-.06-.02-.04-.02-.06-.02-.05-.01-.05-.01-.07-.01-.04-.01h-.08H44.54h-.02l-.07.01h-.04l-.05.02-.06.02h-.03l-.07.04-15.75 6.95-.01.01-.03.01-.07.04-.04.02-.05.03-.04.04c-.02 0-.03.02-.04.03l-.05.04-.03.03-.04.05-.03.03a1.16 1.16 0 00-.06.09l-.03.04c0 .02-.02.04-.03.05a.8.8 0 00-.04.1l-.02.04-.02.06v.05l-.02.05-.01.06v.05l-.01.08v19.96a6.54 6.54 0 00-3.65-1.04 7.84 7.84 0 00-6.31 3.26 5.11 5.11 0 00-.72 4.44c.7 2.2 2.92 3.64 5.64 3.64a7.84 7.84 0 006.31-3.26 5.31 5.31 0 00.94-3.35V24.63l13.54-5.99V32.8a6.54 6.54 0 00-3.64-1.04c-.8 0-1.6.13-2.4.38-3.49 1.12-5.57 4.4-4.64 7.32.7 2.21 2.92 3.64 5.64 3.64a7.84 7.84 0 006.32-3.26 5.3 5.3 0 00.93-3.35zm-21.29 11c-.56.18-1.14.27-1.71.27-1.74 0-3.13-.83-3.54-2.1-.26-.81-.1-1.72.46-2.55a5.64 5.64 0 014.48-2.27c1.73 0 3.12.83 3.53 2.1.06.18.1.36.1.54v.42l.01.04a3.31 3.31 0 01-.57 1.55 5.17 5.17 0 01-2.76 2zM30 22.2v-1.75l13.54-5.99v1.76L30 22.2zm10.22 18.4c-.57.19-1.15.28-1.72.28-1.74 0-3.13-.82-3.54-2.1-.56-1.76.89-3.8 3.22-4.54a5.64 5.64 0 011.72-.28c1.74 0 3.13.83 3.54 2.1.05.18.09.36.1.55v.22l.01.13a3.27 3.27 0 01-.57 1.65 5.17 5.17 0 01-2.76 2z"/></g></g></svg>
