<?xml version="1.0" encoding="UTF-8"?><svg width="48" height="29" viewBox="0 0 48 29" xmlns="http://www.w3.org/2000/svg"><g transform="translate(-2 -12)" fill="none" fill-rule="evenodd"><circle fill="none" cx="26" cy="26" r="26"/><g transform="translate(2 12)" fill="#333" fill-rule="nonzero"><path d="M24 .06c-12.34 0-24 5.35-24 11 0 10.77 3.93 17 24 17s24-6.23 24-17c0-5.65-11.66-11-24-11zm0 2c12.76 0 22 5.38 22 9 0 3.38-8.84 7-22 7s-22-3.62-22-7c0-3.62 9.24-9 22-9zm0 24c-15.72 0-20.6-3.82-21.71-10.94C6.34 18.38 15.2 20.06 24 20.06s17.66-1.68 21.71-4.94C44.6 22.24 39.72 26.06 24 26.06z"/><circle cx="18" cy="5.06" r="1"/><circle cx="22" cy="5.06" r="1"/><circle cx="26" cy="5.06" r="1"/><circle cx="30" cy="5.06" r="1"/><path d="M22 23.06a1 1 0 001 1h2a1 1 0 100-2h-2a1 1 0 00-1 1z"/></g></g></svg>
