<?xml version="1.0" encoding="UTF-8"?><svg width="48" height="46" viewBox="0 0 48 46" xmlns="http://www.w3.org/2000/svg"><g fill="none" fill-rule="evenodd"><circle cx="26" cy="26" r="26" fill="none" fill-opacity="0" transform="translate(-2 -3)"/><g fill="#333" fill-rule="nonzero"><path d="M42.6 22.42H15.4V10.58a3.6 3.6 0 10-2.14.08v11.76H6.81a5.35 5.35 0 00-5.35 5.34v10.96c0 .6.48 1.07 1.07 1.07H6v4.5c0 .59.48 1.07 1.07 1.07h34.76c.6 0 1.07-.48 1.07-1.07v-4.5h3.97c.59 0 1.07-.48 1.07-1.07V27.76c0-2.95-2.4-5.34-5.35-5.34zM12.73 7.2a1.45 1.45 0 112.9 0 1.45 1.45 0 01-2.9 0zm28.02 36.02H8.13v-3.43h32.63v3.43zm5.04-5.57H3.6v-9.89c0-1.77 1.44-3.2 3.2-3.2h35.8c1.76 0 3.2 1.43 3.2 3.2v9.9z"/><path d="M10.62 28.02c-.59 0-1.07.48-1.07 1.07v4.03a1.07 1.07 0 102.14 0v-4.03c0-.6-.48-1.07-1.07-1.07zM37.03 27.34a3.49 3.49 0 100 6.97 3.52 3.52 0 003.48-3.44v-.04a3.5 3.5 0 00-3.48-3.5zm0 4.84a1.35 1.35 0 111.35-1.37c-.04.77-.63 1.37-1.35 1.37zM16.85 28.02c-.59 0-1.07.48-1.07 1.07v4.03a1.07 1.07 0 002.14 0v-4.03c0-.6-.48-1.07-1.07-1.07zM7.53 11.49a1.07 1.07 0 00.76-1.83 3.86 3.86 0 010-5.44 1.07 1.07 0 10-1.51-1.5 6 6 0 000 8.46c.2.2.47.31.75.31z"/><path d="M3.45 13.76a1.07 1.07 0 00.75-1.83 7.18 7.18 0 010-10.08A1.07 1.07 0 102.69.35a9.32 9.32 0 000 13.1c.2.2.48.3.77.3z"/></g></g></svg>
