<?xml version="1.0" encoding="UTF-8"?><svg width="48" height="23" viewBox="0 0 48 23" xmlns="http://www.w3.org/2000/svg"><g transform="translate(-2 -16)" fill="none" fill-rule="evenodd"><circle fill="none" cx="26" cy="26" r="26"/><g fill="#333" fill-rule="nonzero"><path d="M44.9 16a5.13 5.13 0 00-4.27 7.96l-5.5 5.57a5.03 5.03 0 00-5.65.06l-5.56-5.63A5.16 5.16 0 0019.65 16a5.13 5.13 0 00-4.27 7.96l-5.5 5.57a5.02 5.02 0 00-2.78-.84A5.13 5.13 0 002 33.85 5.13 5.13 0 007.1 39a5.13 5.13 0 004.27-7.96l5.5-5.57a5.03 5.03 0 005.56 0l5.6 5.66A5.16 5.16 0 0032.34 39a5.13 5.13 0 004.27-7.96l5.5-5.57c.8.53 1.76.84 2.78.84 2.81 0 5.1-2.32 5.1-5.16A5.13 5.13 0 0044.9 16zM7.1 36.87a3.01 3.01 0 01-3-3.02 3.01 3.01 0 013-3.03 3.01 3.01 0 012.99 3.03 3.01 3.01 0 01-3 3.02zm12.55-12.7a3.01 3.01 0 01-2.99-3.02 3.01 3.01 0 013-3.02 3.01 3.01 0 012.98 3.02 3.01 3.01 0 01-2.99 3.03zm12.7 12.7a3.01 3.01 0 01-3-3.02 3.01 3.01 0 013-3.03 3.01 3.01 0 012.99 3.03 3.01 3.01 0 01-3 3.02zm12.55-12.7a3.01 3.01 0 01-2.99-3.02 3.01 3.01 0 013-3.02 3.01 3.01 0 012.98 3.02 3.01 3.01 0 01-2.99 3.03z"/><path d="M18.7 28.29a1 1 0 00-1.4 0l-2.01 2.02a1 1 0 001.4 1.4l2.02-2.02a1 1 0 000-1.4zM37.71 22.29a1 1 0 00-1.4 0l-2.02 2.02a1 1 0 001.4 1.4l2.02-2.02a1 1 0 000-1.4z"/></g></g></svg>
