<?xml version="1.0" encoding="UTF-8"?><svg width="48" height="48" viewBox="0 0 48 48" xmlns="http://www.w3.org/2000/svg"><g transform="translate(-2 -4)" fill="none" fill-rule="evenodd"><circle fill="none" cx="26" cy="26" r="26"/><g fill="#333" fill-rule="nonzero"><path d="M27.1 21.02a3.03 3.03 0 00-3.06-2.98 3.03 3.03 0 00-3.06 2.98v12.3a3.91 3.91 0 00-1.02 2.62c0 2.2 1.83 3.98 4.08 3.98a4.04 4.04 0 004.08-3.98c0-.96-.36-1.89-1.02-2.61v-12.3zm-3.06 16.91c-1.13 0-2.04-.9-2.04-1.99 0-.56.24-1.08.68-1.47a.98.98 0 00.34-.74v-12.7a1 1 0 011.02-1 1 1 0 011.02 1v12.7c0 .28.12.55.34.74.44.39.68.9.68 1.47 0 1.1-.91 1.99-2.04 1.99z"/><path d="M46 30h-4v-4h3.03a1 1 0 00.7-1.72l-21.04-20a1 1 0 00-1.38 0l-21 20A1 1 0 003 26h3v19a1 1 0 001 1h27.28A8 8 0 0050 44V34a4 4 0 00-4-4zm-12 4v10H8V25a1 1 0 00-1-1H5.5L24 6.38 42.53 24H41a1 1 0 00-1 1v5h-2a4 4 0 00-4 4zm14 10a6 6 0 01-12 0V34c0-1.1.9-2 2-2h8a2 2 0 012 2v10z"/><path d="M43.8 36h-.98v-.98a.98.98 0 10-1.96 0V36h-.98a.98.98 0 100 1.96h.98v.98a.98.98 0 101.96 0v-.98h.98a.98.98 0 100-1.96zM43.8 43.84h-3.92a.98.98 0 100 1.96h3.92a.98.98 0 100-1.96z"/></g></g></svg>
